<svg width="1280" height="521" viewBox="0 0 1280 521" fill="none" xmlns="http://www.w3.org/2000/svg">
<path d="M-127 414.126L111.194 333.66L156.829 395.086L384.229 502.275L154.658 377.703L107.571 308.125L-127 381.908V414.126Z" fill="#948BFF" fill-opacity="0.19"/>
<path d="M1390 395.086L1258.4 331.592L1183.06 450.68L922.137 521L1205.28 462.71L1265.16 371.688L1390 439.198V395.086Z" fill="#948BFF" fill-opacity="0.19"/>
<path d="M1389.87 0C1389.87 0 1234.48 147.781 1231.22 147.633C1207.46 146.57 1120.15 133.654 1120.15 133.654C1120.15 133.654 946.428 416.232 939.607 415.513C932.785 414.798 862.565 401.448 862.565 401.448L792.661 482.948L862.565 388.207C862.565 388.207 942.566 401.78 939.607 401.448C936.648 401.123 1118.22 116.18 1118.22 116.18L1232.67 127.576L1344.22 0H1389.87Z" fill="#8E72FF" fill-opacity="0.49"/>
<path d="M-35.8503 47.1919L70.3875 199.086L273.21 243.775L326.886 331.592L278.452 227.963L83.9109 182.406L4.71267 47.1919H-35.8503Z" fill="#8E72FF" fill-opacity="0.49"/>
</svg>
